<svg width="164" height="17" viewBox="0 0 164 17" fill="none" xmlns="http://www.w3.org/2000/svg">
<g clip-path="url(#clip0_3030_45)">
<path d="M0 0.0485714C0.206564 0.868366 0.627263 1.61669 1.21791 2.21496C1.80856 2.81322 2.54736 3.23934 3.35673 3.44857H8.63158L8.87135 3.49714V16.9029H12.1322V3.54571L12.4678 3.4H17.7427C18.5498 3.18609 19.2861 2.7584 19.8761 2.16087C20.466 1.56334 20.8882 0.81751 21.0994 0L0 0V0.0485714ZM114.416 0.0485714H111.156V16.9514H126.117C126.826 16.68 127.459 16.2372 127.96 15.6615C128.462 15.0859 128.817 14.3949 128.994 13.6486H114.464V0L114.416 0.0485714ZM89.3368 3.35143C91.0632 2.86571 92.5018 1.50571 92.8854 0L74.6152 0.0485714V10.0543H89.5287V13.5514H77.8281C76.9347 13.7868 76.1009 14.2116 75.3817 14.7977C74.6625 15.3838 74.0744 16.1179 73.6561 16.9514H92.7895V6.75143H77.8281V3.35143H89.3368ZM145.058 16.9514H148.271V10.1514H160.068V16.9514H163.281V6.75143H145.058V16.9514ZM40.9041 3.4H53.3719C54.1924 3.20341 54.9438 2.78237 55.5442 2.18281C56.1446 1.58324 56.5709 0.828184 56.7766 0L37.5474 0C37.7492 0.822122 38.1683 1.57302 38.7597 2.17205C39.3511 2.77108 40.0924 3.19559 40.9041 3.4ZM40.9041 10.1029H53.3719C54.1924 9.90627 54.9438 9.48523 55.5442 8.88566C56.1446 8.2861 56.5709 7.53104 56.7766 6.70286H37.5474C37.7492 7.52498 38.1683 8.27588 38.7597 8.87491C39.3511 9.47394 40.0924 9.89845 40.9041 10.1029ZM40.9041 16.9514H53.3719C54.1924 16.7548 54.9438 16.3338 55.5442 15.7342C56.1446 15.1347 56.5709 14.3796 56.7766 13.5514H37.5474C37.7492 14.3735 38.1683 15.1245 38.7597 15.7235C39.3511 16.3225 40.0924 16.747 40.9041 16.9514ZM147.936 3.4H160.404C161.215 3.19559 161.957 2.77108 162.548 2.17205C163.139 1.57302 163.558 0.822122 163.76 0L144.579 0C144.781 0.822122 145.2 1.57302 145.791 2.17205C146.383 2.77108 147.124 3.19559 147.936 3.4Z" fill="white"/>
</g>
<defs>
<clipPath id="clip0_3030_45">
<rect width="164" height="17" fill="white"/>
</clipPath>
</defs>
</svg>
